<?xml version="1.0" encoding="utf-8"?>
<!-- Generator: Adobe Illustrator 19.0.0, SVG Export Plug-In . SVG Version: 6.00 Build 0)  -->
<svg version="1.1" id="Layer_1" xmlns="http://www.w3.org/2000/svg" xmlns:xlink="http://www.w3.org/1999/xlink" x="0px" y="0px"
	 viewBox="0 0 300 50" style="enable-background:new 0 0 300 50;" xml:space="preserve">
<style type="text/css">
	.st0{fill:#FFFFFF;}
</style>
<g id="XMLID_2_">
	<path id="XMLID_3_" class="st0" d="M42.6,28c1.6,2.1,2.4,4.6,2.4,7.7c0,4.3-1.7,7.6-5,9.9c-3.3,2.3-8.2,3.5-14.6,3.5H0V0h23.9
		c6,0,10.6,1.1,13.8,3.4c3.2,2.3,4.8,5.4,4.8,9.3c0,2.4-0.6,4.5-1.7,6.4C39.6,21,38,22.5,36,23.5C38.8,24.4,41,25.9,42.6,28z
		 M11.3,8.6v11.5h11.3c2.8,0,4.9-0.5,6.4-1.5c1.4-1,2.2-2.4,2.2-4.3c0-1.9-0.7-3.3-2.2-4.3c-1.4-1-3.6-1.4-6.4-1.4H11.3z M31.3,39
		c1.5-1,2.3-2.5,2.3-4.6c0-4.1-3-6.1-9-6.1H11.3v12.1h13.2C27.5,40.5,29.7,40,31.3,39z"/>
	<path id="XMLID_7_" class="st0" d="M53.5,0h11.3v39.8h24.6V49H53.5V0z"/>
	<path id="XMLID_9_" class="st0" d="M140.4,49l-0.1-29.4l-14.4,24.2h-5.1l-14.3-23.6V49H95.8V0h9.4l18.3,30.5L141.6,0h9.3l0.1,49
		H140.4z"/>
	<path id="XMLID_11_" class="st0" d="M161.2,47.6c-1.3-1.3-2-2.9-2-4.9c0-2,0.7-3.6,2-4.9c1.3-1.2,2.9-1.9,4.8-1.9
		c1.9,0,3.5,0.6,4.8,1.9c1.3,1.2,2,2.9,2,4.9c0,2-0.7,3.6-2,4.9c-1.3,1.3-2.9,2-4.8,2C164.1,49.6,162.5,48.9,161.2,47.6z"/>
	<path id="XMLID_13_" class="st0" d="M204.3,47.2c-1.1,0.8-2.4,1.4-4,1.8c-1.6,0.4-3.2,0.6-4.9,0.6c-4.5,0-7.9-1.1-10.4-3.4
		c-2.5-2.3-3.7-5.6-3.7-10.1V20.6h-5.8v-8.4h5.8V3h10.9v9.2h9.4v8.4h-9.4v15.3c0,1.6,0.4,2.8,1.2,3.7c0.8,0.9,2,1.3,3.5,1.3
		c1.7,0,3.2-0.5,4.4-1.4L204.3,47.2z"/>
	<path id="XMLID_15_" class="st0" d="M216.5,47.1c-3.2-1.7-5.6-4-7.4-6.9c-1.8-2.9-2.7-6.3-2.7-10c0-3.7,0.9-7.1,2.7-10
		c1.8-2.9,4.2-5.2,7.4-6.9c3.1-1.7,6.7-2.5,10.7-2.5c4,0,7.5,0.8,10.6,2.5c3.1,1.7,5.6,4,7.4,6.9c1.8,2.9,2.7,6.3,2.7,10
		c0,3.7-0.9,7.1-2.7,10c-1.8,2.9-4.2,5.2-7.4,6.9c-3.1,1.7-6.7,2.5-10.6,2.5C223.2,49.6,219.6,48.7,216.5,47.1z M234,37.8
		c1.8-1.9,2.7-4.4,2.7-7.6c0-3.2-0.9-5.7-2.7-7.6c-1.8-1.9-4.1-2.8-6.9-2.8s-5.1,0.9-6.9,2.8c-1.8,1.9-2.7,4.4-2.7,7.6
		c0,3.2,0.9,5.7,2.7,7.6c1.8,1.9,4.1,2.8,6.9,2.8S232.2,39.7,234,37.8z"/>
</g>
</svg>
